<svg width="196" height="28" viewBox="0 0 196 28" fill="none" xmlns="http://www.w3.org/2000/svg">

    <g fill="#2A2A29">
        <path d="M81.0891 7.2173a19.0626 19.0626 0 0 0-3.1826-.2596 9.8599 9.8599 0 0 0-2.9739.402c-.8161.248-1.5678.6981-2.1956 1.315-.6511.6596-1.1718 1.4555-1.5308 2.3395a17.2763 17.2763 0 0 0-.9792 3.4312c-.4948 2.6383-.2912 4.5675.6056 5.7345.8968 1.167 2.4352 1.7588 4.5742 1.7588a19.5775 19.5775 0 0 0 3.1594-.2456 23.2835 23.2835 0 0 0 3.0305-.7148l.0748-.0223 2.4198-12.9765-.1083-.0391a18.1115 18.1115 0 0 0-2.8939-.7231Zm-6.7518 9.872a18.2192 18.2192 0 0 1 .3376-2.5881 21.699 21.699 0 0 1 .6391-2.6299c.174-.5717.4353-1.1077.7731-1.5858.2517-.3482.5856-.6164.9664-.776a3.6367 3.6367 0 0 1 1.3426-.2234c.1804 0 .384 0 .6082.025.1604.012.3198.0372.4767.0755l-1.8761 10.1121a3.8246 3.8246 0 0 1-.5154.0977 5.1544 5.1544 0 0 1-.5901.0391 3.0725 3.0725 0 0 1-1.2601-.2206c-.3144-.1448-.5628-.419-.6907-.7622a3.7992 3.7992 0 0 1-.2113-1.5634Z"/>
        <path d="M56.1001 6.9857a4.5013 4.5013 0 0 0-.5154-.028h-.4819a21.9476 21.9476 0 0 0-3.7263.3156 17.6747 17.6747 0 0 0-3.3269.8934l-.0696.0279-2.5435 13.359h4.35l2.2188-11.6197a13.473 13.473 0 0 1 1.5951.1201 9.328 9.328 0 0 1 1.5926.3378l.1237.0391.9432-3.4284-.1598-.0168Z"/>
        <path d="M63.4008 6.9576a9.995 9.995 0 0 0-2.9867.402c-.8228.2483-1.5842.6918-2.2292 1.2983-.6586.6518-1.1851 1.4446-1.5462 2.3284a15.8506 15.8506 0 0 0-.9689 3.434c-.4587 2.5992-.2577 4.52.6056 5.7149.8633 1.1949 2.4043 1.8035 4.6051 1.8035a10.2022 10.2022 0 0 0 2.9971-.3992c.8276-.249 1.5941-.6933 2.2445-1.301.6562-.6487 1.1825-1.4365 1.5462-2.3145a15.4223 15.4223 0 0 0 .9664-3.4479c.4768-2.5964.2783-4.52-.5927-5.715-.871-1.1948-2.4224-1.8035-4.6412-1.8035Zm-3.6542 10.2015c.0596-.903.1767-1.8004.3505-2.6858a23.5372 23.5372 0 0 1 .6391-2.6997 7.584 7.584 0 0 1 .7164-1.6751c.1945-.3488.4687-.6373.7963-.8376a1.932 1.932 0 0 1 .9251-.2317c.2896-.011.5763.0664.8272.2233.2479.1967.4211.4846.4871.8097a5.29 5.29 0 0 1 .1082 1.6583 22.4849 22.4849 0 0 1-.3633 2.6886 23.0115 23.0115 0 0 1-.6391 2.6997 7.355 7.355 0 0 1-.7164 1.6751c-.1948.3476-.4679.6358-.7937.8376a1.9323 1.9323 0 0 1-.9278.2289c-.2847.0117-.5666-.0659-.8117-.2233-.2418-.1996-.4107-.4854-.4768-.8069a5.49 5.49 0 0 1-.1211-1.6611Z"/>
        <path d="M157.278 9.4007c-.173-.5729-.506-1.0733-.953-1.4323-.501-.3848-1.072-.6494-1.675-.7761a10.1152 10.1152 0 0 0-2.299-.2345 8.883 8.883 0 0 0-2.835.416c-.8.2632-1.536.7172-2.154 1.3289-.644.658-1.16 1.4487-1.518 2.3256a14.997 14.997 0 0 0-.935 3.3921 12.2709 12.2709 0 0 0-.191 3.4591c.076.8527.374 1.6644.861 2.3396.502.6317 1.166 1.089 1.907 1.3149a9.0623 9.0623 0 0 0 2.881.4049c.927.0061 1.851-.1045 2.755-.3295a9.6678 9.6678 0 0 0 2.273-.8878l.095-.053-.652-2.3368-.134.0614c-.497.2392-1.009.4379-1.533.5947a5.8257 5.8257 0 0 1-1.642.2149 3.2768 3.2768 0 0 1-1.206-.1982c-.307-.1166-.576-.3282-.773-.6086-.215-.3322-.354-.715-.405-1.1167a6.6142 6.6142 0 0 1 0-1.6752c.475 0 1 0 1.567-.0279.614-.0195 1.309-.0726 2.062-.1647.568-.0644 1.13-.1755 1.683-.3322.489-.1386.952-.3681 1.368-.6784.4-.3029.736-.6951.984-1.1503a5.1836 5.1836 0 0 0 .547-1.7421 4.62 4.62 0 0 0-.078-2.1078Zm-7.782 4.0035c.14-.6909.32-1.3715.538-2.0381a6.54 6.54 0 0 1 .629-1.396c.176-.2921.411-.5367.688-.7146a1.526 1.526 0 0 1 .773-.215c.175-.0146.351.0152.513.0869.163.0717.307.1834.423.3263.211.2792.258.8096.149 1.583-.108.7733-.332 1.3401-.652 1.6528-.442.3651-.975.5772-1.53.6086-.297.0363-.593.0614-.877.0809-.219.014-.44.0224-.654.0252Z"/>
        <path d="M145.409 7.3681h-3.026l.343-1.608c.16-.7902.374-1.3374.634-1.6277.148-.148.323-.2618.513-.3342.19-.0725.391-.1023.593-.0874a3.171 3.171 0 0 1 .827.1061c.225.0574.445.1369.657.2373l.121.0586.827-2.158-.098-.0615a6.5892 6.5892 0 0 0-1.376-.6142A6.4767 6.4767 0 0 0 143.406 1c-1.435 0-2.561.335-3.35.9995-.788.6645-1.332 1.7645-1.618 3.2637l-.41 2.119-1.665.2457-.43 2.1497h1.642l-2.201 11.6029a14.168 14.168 0 0 1-.722 2.5965c-.353.8374-.84 1.6009-1.438 2.2558l-.072.0809 1.044 1.6752.09-.028c1.546-.4802 2.768-1.2479 3.628-2.2837.861-1.0358 1.469-2.4624 1.804-4.2436l2.224-11.6672h2.974l.503-2.3982Z"/>
        <path d="m134.513 10.4392.941-3.4368-.157-.0167a4.436 4.436 0 0 0-.503-.028h-.492a21.9505 21.9505 0 0 0-3.729.3155 17.7279 17.7279 0 0 0-3.327.8935l-.07.0279-2.543 13.359h4.35l2.219-11.6197c.533.0084 1.066.0485 1.595.12a9.3168 9.3168 0 0 1 1.595.3379l.121.0474Z"/>
        <path d="m95.6569 1.3267-1.1313 5.9327a19.5656 19.5656 0 0 0-1.1184-.2067 8.2186 8.2186 0 0 0-1.2267-.0949 8.5231 8.5231 0 0 0-2.7264.402c-.7811.2595-1.4969.7093-2.0926 1.315-.6306.6696-1.137 1.4637-1.4921 2.3396a17.2743 17.2743 0 0 0-.9792 3.4312c-.4922 2.6383-.2886 4.5674.6082 5.7344.8968 1.167 2.4301 1.7589 4.5638 1.7589a19.5902 19.5902 0 0 0 3.1595-.2457 23.1408 23.1408 0 0 0 3.0279-.7147l.0773-.0223L100.03 1.3295l-4.3731-.0028Zm-3.9325 18.2698c-.6175.1117-1.2512.0492-1.84-.1814-.3131-.1469-.5609-.4204-.6906-.7622a3.8021 3.8021 0 0 1-.201-1.5634c.0481-.8712.161-1.7366.3376-2.5881a20.9648 20.9648 0 0 1 .6391-2.6299c.169-.5713.426-1.1074.7602-1.5858.2509-.348.5839-.6162.9638-.7761a3.6465 3.6465 0 0 1 1.3426-.2234c.1821 0 .3857.0084.6108.0252a3.026 3.026 0 0 1 .4767.0753l-1.9018 10.1121a3.8619 3.8619 0 0 1-.4974.0977Z"/>
        <path d="m120.376 7.3681-2.351 12.3065c-.257.0307-.492.0559-.719.0698-.226.014-.515.0279-.773.0279-.739 0-1.234-.1898-1.469-.5583-.234-.3686-.27-1.0581-.092-1.999l1.847-9.8469h-4.381l-1.721 9.1824c-.343 1.7868-.129 3.1465.639 4.0454.768.899 2.193 1.3401 4.255 1.3401a19.9292 19.9292 0 0 0 3.249-.2792 28.3373 28.3373 0 0 0 3.242-.7398l.078-.0251 2.577-13.5294-4.381.0056Z"/>
        <path d="M107.918 7.3039a7.6936 7.6936 0 0 0-2.37-.3462c-1.547 0-2.773.3434-3.631 1.0246-.887.7205-1.483 1.7833-1.665 2.9677a4.746 4.746 0 0 0 .041 2.2167c.167.5466.45 1.043.827 1.449.362.3826.778.7002 1.232.9409.438.2345.856.4718 1.24.7063.336.1963.64.4498.902.751.103.1305.176.2855.213.4524.037.1669.037.341 0 .508a1.4194 1.4194 0 0 1-.159.4993 1.318 1.318 0 0 1-.325.3941c-.271.2178-.742.3294-1.399.3294a5.0148 5.0148 0 0 1-1.688-.2959 7.993 7.993 0 0 1-1.5261-.7259l-.1211-.0753-1.0694 2.4428.0979.067c.6768.4265 1.4067.7452 2.1677.9465a9.8862 9.8862 0 0 0 2.734.3824c1.448 0 2.636-.3294 3.528-.9799.892-.6505 1.487-1.6946 1.745-3.0934a4.5175 4.5175 0 0 0-.044-2.1497c-.167-.5386-.451-1.026-.828-1.421-.368-.3794-.786-.6965-1.242-.9409a24.8526 24.8526 0 0 1-1.255-.7203 3.8662 3.8662 0 0 1-.904-.7454 1.0563 1.0563 0 0 1-.225-.4361 1.1073 1.1073 0 0 1-.007-.4992 1.411 1.411 0 0 1 .154-.5066c.082-.1559.193-.2922.325-.4007.372-.2405.803-.3507 1.235-.3155a4.9598 4.9598 0 0 1 1.577.24c.426.1348.841.3095 1.239.5222l.121.0698.985-2.3815-.098-.0614a8.0608 8.0608 0 0 0-1.807-.8152Z"/>
        <path d="M194.691 17.2093c-1.67.0363-3.35 1.7031-4.865 2.3508-2.136.9157-4.639.7091-5.033-2.1218-.064-.4635-.069-1.4797.144-1.9543.665-1.4853 1.464-.765 2.593-1.0665.879-.2373 1.804-.4495 1.971-1.6528.286-1.999-2.561-2.6104-3.865-2.588-2.062.039-3.866 1.2312-5.43 2.574-1.015.8711-1.925 1.8706-2.886 2.8087-.961.938-3.093 3.4758-4.639 1.636-.683-.8208-.515-2.3508-.337-3.3056.363-1.6619 1.176-3.1685 2.334-4.3273 1.825-1.826 3.647-1.6752 5.814-2.3257 1.085-.3238 1.804-1.1167 1.183-2.4289-.902-1.9152-4.216-2.9705-5.968-3.339-2.383-.5075-4.847-.3431-7.154.4774-6.118 2.1804-9.02 8.6212-10.37 15.0034-.317 1.502-1.492 4.2185.379 4.7768 1.476.4412 2.878.0587 3.35-1.4545a.2575.2575 0 0 0 .023-.0726.2602.2602 0 0 0 0-.0558c.531-4.0398 1.497-8.222 3.881-11.4773 2.216-3.0013 5.925-4.5954 9.262-3.8416-1.275.6534-2.41 1.5882-3.332 2.7444-2.356 2.923-4.309 8.1494-2.206 11.7928 1.518 2.6355 4.458 2.5573 6.801 1.3372 1.646-.8598 3.293-3.0989 5.05-4.7936a8.9177 8.9177 0 0 0-.069.9241c-.098 5.4246 4.283 6.9797 8.403 5.5363 1.616-.5584 4.639-1.6975 5.737-3.2832.745-1.0833.472-1.8901-.771-1.8734Z"/>
    </g>

    <g fill="transparent">
        <path class="brand-primary" d="M19.7972 14.6992h17.98c.2801 0 .3845.0976.4449.3783.1836.8543.3049 1.7236.3626 2.5995a12.7277 12.7277 0 0 1-.0439 3.1669.2315.2315 0 0 1 0 .0611c-.1044.6102-.1539.6712-.7142.6712h-2.461a.3882.3882 0 0 1-.2155-.0501.4424.4424 0 0 1-.1636-.1635c-.3449-.5404-.7915-.9911-1.3089-1.3208-.5173-.3296-1.0929-.5305-1.6871-.5885-.5941-.058-1.1925.0281-1.7536.2524-.5612.2243-1.0718.5815-1.4964 1.0467-.625.6444-1.0354 1.5046-1.1646 2.4408-.0439.2807-.1263.3295-.3571.3295H12.8975a1.6461 1.6461 0 0 1-.7581-.0305c-.2252-.122-.1483-.5003-.2197-.7627-.2417-.9119-.7326-1.7177-1.4049-2.3059-.6722-.5882-1.4924-.9296-2.3471-.977-.6823-.0576-1.3665.0805-1.987.401-.6204.3206-1.1563.8128-1.5563 1.4296a.5227.5227 0 0 1-.2034.2027.4569.4569 0 0 1-.269.0536H2.1798c-.2417 0-.313-.0916-.335-.3356-.121-1.2937-.2363-2.5873-.3077-3.887-.0494-.8116 0-1.6293-.0879-2.4409 0-.1525.0275-.2257.1703-.2135.1428.0122.1483 0 .2252 0l17.9525.0427Z" />
    </g>

    <g>
        <path d="m29.1297 3.984-2.8017-.0976c-.1758 0-.2472 0-.2472.2502 0 .6102 0 .6102.5494.6102.9778 0 1.9611-.055 2.9444.0427.4801.0329.9391.2313 1.3129.5675 2.3708 2.1448 4.5524 4.5354 6.5152 7.1394.8014 1.1281 1.2951 2.4875 1.4228 3.9175a24.4512 24.4512 0 0 1 .1758 3.4172 5.538 5.538 0 0 1-.2252 1.5926c-.0494.1343 0 .1648.0934.2258.1584.0672.2868.2006.3576.3717a.7933.7933 0 0 1 .0214.5436l-.0934.659a.924.924 0 0 1-.0772.337.8425.8425 0 0 1-.1924.2743.744.744 0 0 1-.2754.1654.6913.6913 0 0 1-.3119.0288h-2.6973c-.1593 0-.2033-.0549-.2142-.238-.0507-1.0271-.4401-1.9975-1.0939-2.7261-.6537-.7285-1.5261-1.1642-2.4506-1.2238-.9245-.0596-1.8364.261-2.5617.9006-.7252.6397-1.2131 1.5535-1.3704 2.5672-.0329.2014.0385.4943-.1044.6103-.1428.1159-.3845.0366-.5878.0366H12.0177c-.2527 0-.3022-.0855-.3296-.3418-.0554-.7771-.3136-1.5194-.7429-2.136-.4292-.6167-1.0111-1.081-1.6743-1.336-.654-.2999-1.3733-.3782-2.0673-.2251-.694.1531-1.3317.5308-1.833 1.0855-.3588.3578-.65.7913-.8564 1.2753-.2066.484-.3244 1.0088-.3467 1.5438 0 .1709-.0659.2136-.2087.2075H1.6406a.6658.6658 0 0 1-.3183-.0568.7348.7348 0 0 1-.2653-.2033.838.838 0 0 1-.1607-.3104.898.898 0 0 1-.0248-.357v-.7445a.6668.6668 0 0 1 .0738-.4102c.0673-.1228.1715-.2152.2942-.261.3241-.1098.2637-.3356.2363-.5797a60.4628 60.4628 0 0 1-.3187-3.9846 50.0926 50.0926 0 0 1 .1703-7.4873 21.2627 21.2627 0 0 1 .5494-3.3317c.0792-.4777.3179-.9047.6682-1.1954.3504-.2908.7866-.4239 1.2215-.3728H5.964c.1813 0 .2252-.0427.2252-.2441 0-.6102 0-.6102-.5493-.6102l-4.142.1708c-.0935 0-.2308.0855-.2747-.0793a.3363.3363 0 0 1 .051-.1931.2836.2836 0 0 1 .1467-.118c.4601-.2724.9607-.4502 1.4778-.5249a31.5824 31.5824 0 0 1 1.6095-.2807c.1868 0 .2362-.0976.1703-.299-.0648-.2495-.1768-.4808-.3283-.6786-.1515-.1978-.3392-.3575-.5506-.4685-.0824-.0367-.1813-.0489-.1813-.1953 0-.1465.1483-.122.2362-.1526.4337-.1203.8925-.0514 1.2819.1927.3893.244.6796.6446.8111 1.1193.0604.2136.1264.2807.3296.2563a88.4758 88.4758 0 0 1 12.8217-.531c1.3349.0367 2.6698.0367 4.0047.0977a45.288 45.288 0 0 1 7.1964.6896 5.5394 5.5394 0 0 1 1.2634.3905c.1417.0627.2748.1469.3956.2502.1428.1098.2746.2746.2142.476-.0604.2013-.2417.0854-.3626.0793-.8954 0-1.7908-.061-2.6807-.0916v-.006Zm-9.3389 10.7152H1.6186c-.0714 0-.1813.0611-.1703.2136.066.8116.0384 1.6293.0879 2.4408.0714 1.2998.1868 2.5934.3076 3.887 0 .2441.0934.3479.3351.3357H4.151a.4577.4577 0 0 0 .269-.0536.5227.5227 0 0 0 .2035-.2027c.4-.6168.9358-1.109 1.5563-1.4296.6204-.3206 1.3046-.4587 1.987-.401.8546.0473 1.6749.3888 2.3472.977.6722.5882 1.1631 1.394 1.4048 2.3059.0714.2624 0 .6407.2197.7627.248.0691.5063.0795.7581.0305h14.3433c.2307 0 .3131-.0488.3571-.3295.1292-.9362.5396-1.7964 1.1646-2.4408.4246-.4653.9352-.8224 1.4963-1.0467.5612-.2243 1.1596-.3105 1.7537-.2524.5941.058 1.1698.2588 1.6871.5885.5173.3297.9639.7804 1.3089 1.3208a.4424.4424 0 0 0 .1636.1635.3882.3882 0 0 0 .2155.0501h2.461c.5494 0 .6098-.0488.7142-.6713a.2307.2307 0 0 0 0-.061 12.7277 12.7277 0 0 0 .0439-3.1669 18.0073 18.0073 0 0 0-.379-2.6483c-.0605-.2807-.1648-.3784-.445-.3784-5.9952.0122-11.9903.0143-17.9855.0061h-.0055Zm-.1043-.3966H37.639c.3241 0 .3241 0 .1757-.3295a6.9961 6.9961 0 0 0-.824-1.3791c-1.8127-2.3624-3.7871-4.5657-5.9054-6.5902-.6187-.6083-1.427-.9237-2.2523-.8787H3.6676c-.3075-.016-.611.0837-.8612.283-.2503.1993-.4326.4866-.5176.8154-.1369.4876-.2433.985-.3186 1.4889a38.8668 38.8668 0 0 0-.4944 6.1875c0 .4149 0 .4149.368.4149l17.8427-.0122ZM31.8489 3.8498c-.2698-.3308-.635-.5467-1.0328-.6102a27.5104 27.5104 0 0 0-5.1198-.6957c-1.2855-.0915-2.5655-.1403-3.8454-.1891-1.0657-.0366-2.137-.0366-3.2027-.055-1.648 0-3.3345-.061-5.0045.0306-.7636.0427-1.5272.0427-2.2852.0915-.3681 0-.7417 0-1.0987.061-1.5162.1343-3.038.2319-4.5486.4272a22.5843 22.5843 0 0 0-3.5597.6773c-.181.0222-.3497.1127-.478.2563 1.302-.061 2.5545-.1343 3.8125-.183l3.2246-.1282c1.5437-.0916 3.0873-.0916 4.6255-.1282 1.9941 0 3.9882-.0366 5.9823.0305 1.5217.055 3.0434.0672 4.5705.1343 1.5272.0671 2.95.0976 4.4277.1403h.7416l2.7907.1404Zm-15.7167.8848h8.7291c.4999 0 .4889 0 .5054-.5675 0-.2685-.0714-.3295-.2967-.3356-2.9335-.0855-5.8669-.1892-8.7894-.2014-2.9225-.0122-5.9274.0976-8.8884.2014-.4505 0-.4285 0-.456.537 0 .3173.0714.3722.3406.3722 2.9335-.0122 5.8945-.0061 8.8554-.0061Zm19.183 17.2261c.2118.467.3511.9704.412 1.4889 0 .1342.0495.1831.1703.1831h2.4611a.3436.3436 0 0 0 .156-.016.3709.3709 0 0 0 .1369-.0846.42.42 0 0 0 .0943-.1389.4608.4608 0 0 0 .0358-.1694c0-.2441.0714-.482.1044-.7261.0494-.3662-.066-.5248-.412-.5309l-3.1588-.0061Zm-31.0598 0H1.6625c-.3076 0-.4284.1525-.434.4882v.6956c0 .3173.1264.476.4176.476h2.0325c.0934 0 .1538 0 .1648-.1465a5.2878 5.2878 0 0 1 .412-1.5133Z"
              fill="#070606"/>
        <path d="M34.9316 24.0476c0 .971-.3473 1.9022-.9654 2.5889-.6182.6866-1.4565 1.0723-2.3307 1.0723-.8814 0-1.7268-.3889-2.3501-1.0813-.6233-.6923-.9734-1.6313-.9734-2.6104 0-.9791.3501-1.9182.9734-2.6105.6233-.6923 1.4687-1.0813 2.3501-1.0813.4375-.0001.8706.0966 1.2742.2844.4035.1878.7693.463 1.0761.8095.3068.3464.5484.7573.7108 1.2085a4.024 4.024 0 0 1 .235 1.4199Zm-3.2961 3.2646a2.6803 2.6803 0 0 0 1.1277-.2428c.3578-.1627.6831-.4023.9573-.7051.2741-.3028.4917-.6629.6401-1.0594a3.573 3.573 0 0 0 .2249-1.2512 3.6149 3.6149 0 0 0-.1871-1.2991c-.1407-.4146-.3554-.7933-.6313-1.1132-.2758-.32-.6072-.5746-.974-.7485a2.7029 2.7029 0 0 0-1.1603-.2636 2.703 2.703 0 0 0-1.1604.2636c-.3668.1739-.6982.4285-.974.7485-.2759.3199-.4906.6986-.6313 1.1132a3.617 3.617 0 0 0-.1871 1.2991 3.5391 3.5391 0 0 0 .2163 1.2585c.1472.3992.3651.7615.6408 1.0654.2756.3039.6034.5432.9638.7037a2.646 2.646 0 0 0 1.1346.2309Zm-27.0001-3.289c0-.9711.3472-1.9023.9654-2.5889.618-.6866 1.4565-1.0724 2.3306-1.0724.6596-.006 1.306.2062 1.8567.6095.5508.4033.981.9795 1.2359 1.6554.255.6758.3231 1.4206.1958 2.1395-.1274.719-.4445 1.3796-.9109 1.8977-.4665.5181-1.0612.8704-1.7084 1.0118-.6473.1415-1.3178.0658-1.9262-.2174-.6084-.2832-1.1272-.7611-1.4903-1.3728-.363-.6118-.554-1.3297-.5486-2.0624Zm3.296 3.289a2.6535 2.6535 0 0 0 1.135-.2331c.3605-.1613.6882-.4012.9638-.7055.2755-.3044.4933-.6671.6405-1.0666a3.5462 3.5462 0 0 0 .2162-1.2594 3.6145 3.6145 0 0 0-.1871-1.2991c-.1406-.4146-.3554-.7933-.6312-1.1132-.276-.32-.6073-.5746-.974-.7485a2.703 2.703 0 0 0-1.1604-.2636c-.3989 0-.7936.0896-1.1604.2636-.3668.1739-.6981.4285-.974.7485-.2759.3199-.4906.6986-.6313 1.1132a3.6139 3.6139 0 0 0-.187 1.2991c-.0015.4307.074.8574.2223 1.2555.1482.398.366.7593.641 1.063.275.3037.6015.5438.9606.7062a2.6747 2.6747 0 0 0 1.1315.2399h-.0055Z"
              fill="#070606"/>
        <path d="M19.6928 14.3025H1.8282c-.3736 0-.3736 0-.368-.4149a38.8612 38.8612 0 0 1 .5108-6.1753c.0812-.5001.1932-.9935.3351-1.4767.0833-.3267.2628-.613.5097-.8132.247-.2002.5471-.3027.8527-.2913h25.1653c.8245-.0466 1.6328.2665 2.2523.8726 2.1184 2.0246 4.0927 4.2279 5.9054 6.5903.3254.4307.6022.9041.8241 1.4095.1483.3295.1483.3295-.1758.3295h-17.947v-.0305Zm-8.6686-8.0364H4.3826a.7412.7412 0 0 0-.376.0366.81.81 0 0 0-.3213.2202.9303.9303 0 0 0-.1981.3568 1.0052 1.0052 0 0 0-.033.4177v4.8328c0 .7872.2857 1.0984.9888 1.0984h13.1843c.7031 0 .9888-.3173.9888-1.0984V7.3645c0-.781-.2857-1.0984-.9888-1.0984h-6.6031Zm18.0403 6.9381h4.9771c.1801.0306.3642-.0047.5248-.1004.1605-.0958.2886-.2468.3651-.4305a1.0654 1.0654 0 0 0 .0235-.6081c-.0515-.2002-.16-.3765-.3091-.5025-1.4283-1.5377-2.8621-3.051-4.2849-4.6192-.1926-.2159-.422-.387-.6748-.5032a1.883 1.883 0 0 0-.7974-.1742h-4.8013a.7558.7558 0 0 0-.384.036.8255.8255 0 0 0-.3286.2235.948.948 0 0 0-.2032.3637 1.0263 1.0263 0 0 0-.0346.4264v4.8328c0 .7506.3022 1.0801.9779 1.0801l4.9495-.0244Z"
              fill="#F9F9F9"/>
        <path d="m31.8497 3.8497-2.7907-.116-.7196-.0243c-1.4777-.0427-2.9555-.0732-4.4277-.1404-1.4722-.067-3.0708-.0793-4.5925-.1281-1.9941-.0671-3.9882-.0488-5.9823-.0305-1.5382 0-3.0818.061-4.6255.1281l-3.2246.122c-1.258.0489-2.5105.1221-3.8125.1831.1283-.1436.297-.234.478-.2563a22.569 22.569 0 0 1 3.5432-.6529c1.5107-.1953 3.0324-.2929 4.5486-.4271.368-.0305.7416-.0366 1.0987-.061.758-.0489 1.5216-.0489 2.2852-.0916 1.648-.0915 3.3345-.061 5.0045-.0305 1.0657 0 2.137 0 3.2027.055 1.2854.0488 2.5654.0976 3.8454.189 1.7213.0704 3.434.3031 5.1198.6957.4007.053.772.2603 1.0493.5858Z"
              fill="#4E4F4E"/>
        <path d="M35.3159 21.9606h3.1587c.3461 0 .4615.1647.412.5309-.0329.244-.0824.482-.1044.7261a.4587.4587 0 0 1-.0357.1694.4202.4202 0 0 1-.0944.1389.3693.3693 0 0 1-.1369.0846.3434.3434 0 0 1-.156.0159h-2.461c-.1209 0-.1538-.0488-.1703-.183a5.0333 5.0333 0 0 0-.412-1.4828Z"
              fill="#FDFDFD"/>
        <path d="M4.2559 21.9606a5.2883 5.2883 0 0 0-.412 1.5194c0 .1342-.0715.1525-.1648.1464H1.6465c-.2912 0-.412-.1586-.4175-.4759v-.7018c0-.3356.1263-.482.434-.4881h2.5929Z"
              fill="#F9F9F9"/>
        <path d="M31.6352 27.3121a2.6472 2.6472 0 0 1-1.1359-.2314c-.3608-.161-.6889-.4008-.9646-.7054-.2757-.3045-.4935-.6675-.6403-1.0674a3.5382 3.5382 0 0 1-.2147-1.2604c-.0033-.6501.1673-1.2866.4901-1.8289.3227-.5423.7831-.9659 1.3229-1.2172.5397-.2513 1.1345-.3189 1.7089-.1943.5744.1246 1.1025.4358 1.5175.8942.415.4584.6981 1.0433.8135 1.6806.1153.6373.0578 1.2984-.1654 1.8993-.2232.6009-.602 1.1147-1.0884 1.4763-.4864.3615-1.0584.5545-1.6436.5546Zm1.5821-3.2769a1.8853 1.8853 0 0 0-.1081-.6812 1.744 1.744 0 0 0-.3415-.5785c-.1481-.165-.3249-.2948-.5196-.3814a1.4082 1.4082 0 0 0-.6129-.1223 1.4623 1.4623 0 0 0-.6211.1185c-.1979.0847-.3787.2122-.532.3751a1.7976 1.7976 0 0 0-.3609.5737 1.9534 1.9534 0 0 0-.1341.6839c-.0001.4772.1675.9356.4671 1.2775.2996.342.7076.5404 1.137.5532a1.4385 1.4385 0 0 0 .6347-.1211c.2018-.0884.385-.2222.5381-.3929.1532-.1706.273-.3746.3519-.5991a1.928 1.928 0 0 0 .1069-.7054h-.0055ZM7.9366 27.3121a2.6758 2.6758 0 0 1-1.1336-.2434c-.3596-.1639-.6863-.4057-.9608-.7113-.2746-.3056-.4917-.6688-.6386-1.0686a3.57 3.57 0 0 1-.217-1.2597 3.6144 3.6144 0 0 1 .1871-1.2991c.1406-.4145.3554-.7932.6312-1.1131.276-.32.6073-.5746.974-.7485.3669-.174.7616-.2637 1.1604-.2637.3989 0 .7936.0897 1.1604.2637.3668.1739.6982.4285.974.7485.2759.3199.4906.6986.6312 1.1131.1407.4146.2043.8565.1871 1.2991a3.5466 3.5466 0 0 1-.2113 1.2651c-.1462.4017-.3636.7665-.6394 1.0729-.2758.3063-.6042.5479-.9658.7102a2.6523 2.6523 0 0 1-1.139.2348Zm0-1.4767c.2186.0168.438-.0162.6447-.0968.2067-.0807.3965-.2074.5576-.3724.161-.165.2901-.3648.3793-.5871a1.957 1.957 0 0 0 .139-.706 1.9614 1.9614 0 0 0-.1238-.7094 1.8084 1.8084 0 0 0-.3665-.5971c-.1575-.1692-.3445-.3009-.5494-.387a1.4628 1.4628 0 0 0-.6424-.1139 1.4489 1.4489 0 0 0-.6279.1173c-.2.0856-.3824.2152-.5363.381a1.7887 1.7887 0 0 0-.3592.5839 1.9407 1.9407 0 0 0-.1247.6934c.0083.4698.1789.9181.4764 1.252.2976.334.6994.528 1.1222.5421h.011Z"
              fill="#4E4F4E"/>
        <path d="M11.0238 6.2661h6.5921c.7032 0 .9888.3173.9888 1.0984v4.7657c0 .7811-.2856 1.0984-.9888 1.0984H4.4428c-.7032 0-.9889-.3112-.9889-1.0984V7.2974a1.0052 1.0052 0 0 1 .033-.4177.9303.9303 0 0 1 .1982-.3568.8102.8102 0 0 1 .3212-.2202.7411.7411 0 0 1 .376-.0366h6.6415Zm-5.422 6.5353h10.6518a16.001 16.001 0 0 1-1.4833-2.2272c-.6806-1.0985-1.1964-2.3123-1.5271-3.5941-.055-.2441-.1209-.3234-.3516-.3234H9.3154c-.2966 0-.434.0732-.456.4027a1.8336 1.8336 0 0 1-.1208.421c-.4738 1.3107-1.1078 2.5427-1.8842 3.6613a19.0826 19.0826 0 0 1-1.2525 1.6597Zm12.6349-3.051V7.4316c0-.6102-.1264-.775-.6812-.775h-3.4993c-.5493 0-.5493 0-.3736.6103.5705 1.7637 1.4167 3.4018 2.4995 4.8389.5494.775.5494.7628 1.4448.7567.4779 0 .6263-.1709.6263-.7079l-.0165-2.4042ZM3.8055 9.7138v2.5079a.672.672 0 0 0 .037.277.6145.6145 0 0 0 .1443.2295 1.243 1.243 0 0 0 .6272.1223c.2149-.0148.4235-.086.6088-.2077.7925-.9013 1.4943-1.8957 2.093-2.9656.5094-.8408.914-1.7542 1.203-2.7154.0605-.2258.044-.3174-.2032-.3112H4.3988c-.4505 0-.5933.1647-.5933.6773v2.3859Zm25.2587 3.4904h-4.9441c-.6757 0-.9778-.3295-.9778-1.0801V7.3157a1.0262 1.0262 0 0 1 .0345-.4264.9494.9494 0 0 1 .2032-.3637.826.826 0 0 1 .3287-.2236.7557.7557 0 0 1 .384-.0359h4.7957c.2773-.0046.5526.053.8093.1694.2568.1164.4897.2891.6849.508 1.4228 1.5438 2.8566 3.051 4.2849 4.6192.1454.1292.2495.3069.297.5069.0474.2.0358.4116-.0333.6037-.0727.1871-.1985.3426-.3582.4429-.1597.1002-.3445.1397-.5263.1124l-4.9825-.0244Zm0-.3967h4.9441c.2527 0 .4779-.0305.5493-.3478.0714-.3173-.0219-.4759-.1758-.6346l-4.2299-4.5582c-.1714-.1986-.3781-.3554-.6069-.4604a1.6302 1.6302 0 0 0-.7225-.1498h-4.6804c-.5054 0-.6482.1586-.6482.72v4.7352c0 .5553.1428.7139.6482.7139l4.9221-.0183Zm4.1585 11.2278a1.927 1.927 0 0 1-.1012.7018c-.0766.2238-.1936.4278-.344.5993-.1503.1716-.3307.3071-.53.3982a1.4394 1.4394 0 0 1-.6288.1313c-.4295-.0127-.8375-.2112-1.1371-.5531-.2996-.3419-.4672-.8003-.467-1.2775a1.9484 1.9484 0 0 1 .1341-.6839 1.7946 1.7946 0 0 1 .3609-.5738 1.593 1.593 0 0 1 .532-.375 1.4604 1.4604 0 0 1 .621-.1186 1.4094 1.4094 0 0 1 .6035.1286c.1914.0874.365.2166.5106.3799.1455.1634.26.3576.3366.5711.0767.2135.1139.4419.1094.6717Zm-.3516 0c0-.3641-.1302-.7133-.362-.9708-.2318-.2575-.5462-.4021-.874-.4021-.2994.0444-.5742.2081-.7731.4606-.199.2526-.3087.5767-.3087.9123s.1097.6598.3087.9123c.1989.2525.4737.4162.7731.4607.3236-.0015.6339-.1433.8648-.3952s.3641-.594.3712-.9534v-.0244ZM7.9256 25.8354c-.4228-.014-.8246-.208-1.1222-.542-.2976-.3339-.4681-.7822-.4764-1.252a1.941 1.941 0 0 1 .1247-.6935 1.7897 1.7897 0 0 1 .3592-.5838c.1538-.1658.3363-.2954.5363-.3811.2-.0856.4136-.1255.6278-.1173.219-.011.4375.0278.6425.1139.2049.0862.3918.2179.5493.3871.1575.1692.2823.3724.3666.597.0843.2247.1265.4661.1238.7095a1.9561 1.9561 0 0 1-.139.7059c-.0892.2224-.2183.4222-.3794.5872-.161.1649-.3508.2917-.5575.3723a1.4615 1.4615 0 0 1-.6447.0968h-.011Zm0-.4393c.312.0157.6174-.1021.8535-.3291.2361-.2271.3848-.5461.4154-.8913a1.5249 1.5249 0 0 0-.0507-.5704 1.4255 1.4255 0 0 0-.255-.4982 1.2593 1.2593 0 0 0-.4154-.34 1.1382 1.1382 0 0 0-.5039-.123 1.0985 1.0985 0 0 0-.496.0852 1.2032 1.2032 0 0 0-.4221.3018 1.364 1.364 0 0 0-.2753.4662 1.477 1.477 0 0 0-.081.5502c-.013.1808.0092.3626.0651.533a1.289 1.289 0 0 0 .2589.4545c.1147.1291.253.2293.4056.2937.1527.0644.316.0915.4789.0796l.022-.0122Z"
              fill="#070606"/>
        <path d="M18.2479 9.7503v2.3799c0 .5369-.1483.7078-.6262.7078-.8845 0-.8955 0-1.4448-.7567-1.0829-1.4371-1.929-3.0752-2.4995-4.8389-.1758-.6102-.1703-.6102.3735-.6102h3.5158c.5494 0 .6812.1464.6812.775v2.3431ZM3.8057 9.7137V7.334c0-.5125.1428-.6773.5933-.6773h3.9168c.2472 0 .2637.0854.2032.3112-.289.9613-.6936 1.8747-1.203 2.7154-.5988 1.07-1.3006 2.0644-2.093 2.9656-.1853.1217-.394.1929-.6088.2078a1.244 1.244 0 0 1-.6273-.1223.6153.6153 0 0 1-.1443-.2295.6723.6723 0 0 1-.037-.277v-2.514Zm29.0657 14.346c-.0072.3594-.1404.7014-.3713.9533-.2308.2519-.5411.3937-.8647.3952-.3308 0-.6479-.1459-.8818-.4057-.2339-.2597-.3652-.6121-.3652-.9794 0-.3674.1313-.7197.3652-.9795.2339-.2598.551-.4057.8818-.4057.166-.0001.3304.0369.4833.109a1.241 1.241 0 0 1 .4066.3102 1.4 1.4 0 0 1 .2649.4622c.0595.1722.0871.356.0812.5404Z"
              fill="#F9F9F9"/>
        <path d="M7.9037 25.4083a1.0327 1.0327 0 0 1-.4787-.0696 1.1273 1.1273 0 0 1-.4096-.2839 1.2818 1.2818 0 0 1-.2666-.4471 1.3904 1.3904 0 0 1-.0756-.5297 1.477 1.477 0 0 1 .081-.5502 1.364 1.364 0 0 1 .2754-.4662 1.2032 1.2032 0 0 1 .422-.3018 1.0999 1.0999 0 0 1 .496-.0852c.1724.0016.3426.0431.4997.1217.157.0787.2977.1928.413.3352.1152.1423.2025.3098.2563.4917.0538.1818.0729.3741.0561.5647-.0306.3452-.1793.6642-.4154.8913-.236.227-.5416.3448-.8536.3291Z"
              fill="#FDFDFD"/>
    </g>

</svg>